<svg width="1000" height="1000">
    <defs>
        <linearGradient id="grad1" x1="0%" y1="0%" x2="100%" y2="0%">
            <stop offset="0%" style="stop-color:rgb(202,255,138);stop-opacity:1" />
            <stop offset="100%" style="stop-color:rgb(0,128,128);stop-opacity:.5" />
        </linearGradient>
        <linearGradient id="grad2" x1="0%" y1="0%" x2="100%" y2="0%">
            <stop offset="0%" style="stop-color:rgb(15,239,255);stop-opacity:1" />
            <stop offset="100%" style="stop-color:rgb(59,137,255);stop-opacity:.5" />
        </linearGradient>
    </defs>
    <circle cx="100" cy="100" r="50" stroke-width="1" fill="url(#grad1)" />
    <circle cx="225" cy="100" r="50" stroke-width="1" fill="url(#grad2)" />
    <circle cx="350" cy="100" r="50" stroke-width="1" fill="url(#grad1)" />
    <circle cx="475" cy="100" r="50" stroke-width="1" fill="url(#grad2)" />
    <circle cx="600" cy="100" r="50" stroke-width="1" fill="url(#grad1)" />
    <circle cx="100" cy="225" r="50" stroke-width="1" fill="url(#grad2)" />
    <circle cx="225" cy="225" r="50" stroke-width="1" fill="url(#grad1)" />
    <circle cx="350" cy="225" r="50" stroke-width="1" fill="url(#grad2)" />
    <circle cx="475" cy="225" r="50" stroke-width="1" fill="url(#grad1)" />
    <circle cx="600" cy="225" r="50" stroke-width="1" fill="url(#grad2)" />
    <circle cx="100" cy="350" r="50" stroke-width="1" fill="url(#grad1)" />
    <circle cx="225" cy="350" r="50" stroke-width="1" fill="url(#grad2)" />
    <circle cx="350" cy="350" r="50" stroke-width="1" fill="url(#grad1)" />
    <circle cx="475" cy="350" r="50" stroke-width="1" fill="url(#grad2)" />
    <circle cx="600" cy="350" r="50" stroke-width="1" fill="url(#grad1)" />
    <circle cx="100" cy="475" r="50" stroke-width="1" fill="url(#grad2)" />
    <circle cx="225" cy="475" r="50" stroke-width="1" fill="url(#grad1)" />
    <circle cx="350" cy="475" r="50" stroke-width="1" fill="url(#grad2)" />
    <circle cx="475" cy="475" r="50" stroke-width="1" fill="url(#grad1)" />
    <circle cx="600" cy="475" r="50" stroke-width="1" fill="url(#grad2)" />
    <circle cx="100" cy="600" r="50" stroke-width="1" fill="url(#grad1)" />
    <circle cx="225" cy="600" r="50" stroke-width="1" fill="url(#grad2)" />
    <circle cx="350" cy="600" r="50" stroke-width="1" fill="url(#grad1)" />
    <circle cx="475" cy="600" r="50" stroke-width="1" fill="url(#grad2)" />
    <circle cx="600" cy="600" r="50" stroke-width="1" fill="url(#grad1)" />
</svg>
